<?xml version="1.0" encoding="UTF-8" standalone="no"?>
<svg
   xmlns:dc="http://purl.org/dc/elements/1.1/"
   xmlns:cc="http://creativecommons.org/ns#"
   xmlns:rdf="http://www.w3.org/1999/02/22-rdf-syntax-ns#"
   xmlns:svg="http://www.w3.org/2000/svg"
   xmlns="http://www.w3.org/2000/svg"
   xmlns:sodipodi="http://sodipodi.sourceforge.net/DTD/sodipodi-0.dtd"
   xmlns:inkscape="http://www.inkscape.org/namespaces/inkscape"
   viewBox="0 0 161.32323 156.88393"
   version="1.0"
   id="svg20"
   sodipodi:docname="mt-remix.svg"
   width="161.32323"
   height="156.88393"
   inkscape:version="0.92.3 (2405546, 2018-03-11)">
  <defs
     id="defs24" />
  <sodipodi:namedview
     pagecolor="#ffffff"
     bordercolor="#666666"
     borderopacity="1"
     objecttolerance="10"
     gridtolerance="10"
     guidetolerance="10"
     inkscape:pageopacity="0"
     inkscape:pageshadow="2"
     inkscape:window-width="1920"
     inkscape:window-height="1017"
     id="namedview22"
     showgrid="false"
     fit-margin-top="0"
     fit-margin-left="0"
     fit-margin-right="0"
     fit-margin-bottom="0"
     inkscape:zoom="3.061967"
     inkscape:cx="61.19173"
     inkscape:cy="67.90377"
     inkscape:window-x="3832"
     inkscape:window-y="-8"
     inkscape:window-maximized="1"
     inkscape:current-layer="svg20" />
  <path
     style="stroke-width:0.1"
     d="m 32.067369,0.00111503 c -0.905493,-0.03538 -1.776563,0.769141 -3.914063,2.68164097 -3.4,2.8 -4.2,5.5 -2,6.5 1.1,0.5 -4.2,0.1 -11,-1 l -3.201171,-0.400391 2.90039,3.199219 c 1.6,1.7 2.700391,3.401172 2.400391,3.701172 -0.3,0.3 -0.9,-0.100391 -1.5,-0.900391 -0.7,-1.3 -1.000782,-1.299609 -1.800782,-0.09961 -0.699999,1.1 -0.90039,1.1 -1.40039,0 -0.4,-1 -0.599609,-0.901172 -0.599609,0.298828 -0.1,1.2 -0.99961,1.80039 -2.5996098,1.90039 -1.4,0.1 -3.0992187,0.200782 -3.6992188,0.300782 -1,0.1 -3.2603721,4.299633 -5.64648434,16.873047 -0.2,16.899992 4.04531244,17.526952 6.44531254,20.126952 1.4,1.400001 2.9003906,2.599611 3.4003906,2.599611 0.5999998,0 0.9999998,0.49961 0.9999998,1.09961 0,0.6 0.9,2.19961 2,3.59961 1.1,1.4 2,3.50117 2,4.70117 0,1.2 0.9,3.19883 2,4.29883 1,1.2 2.199609,3.30117 2.599609,4.70117 0.3,1.4 0.900782,2.59961 1.300782,2.59961 0.4,0 0.80039,1.19922 0.90039,2.69922 0.8,9.8 2.998438,15.1 11.398438,27.500005 3.6,5.3 5.701172,9.3 5.201172,10 -0.4,0.7 -0.400391,1.00156 0.09961,0.60156 0.4,-0.4 1.599219,0.39922 2.699219,1.69922 1.5,1.9 3.001562,2.49922 7.101562,2.69922 l 5.199218,0.40039 -3.699219,1.70117 C 34.741154,119.41994 25.97061,150.49393 20.750963,156.88393 H 161.32323 c -0.17311,-0.4348 -0.35685,-0.87386 -0.57031,-1.30078 -2.19581,-28.20188 -36.17861,-34.62659 -49.30078,-54.30078 0.0673,-4.084255 -2.90967,-8.054445 -5.59961,-9.900395 -1.4,-3.7 -6.299224,-3.7 -8.199224,0 -0.7,1.4 -2.900781,3.49961 -4.800781,4.59961 l -3.5,2.10156 3.800781,-3.90039 c 2.3,-2.5 3.699219,-4.89961 3.699219,-6.59961 0,-1.5 0.400391,-2.90117 0.900391,-3.20117 0.5,-0.3 0.70039,-1.5 0.40039,-2.5 -0.3,-1 -3.9e-4,-2.2 0.59961,-2.5 0.6,-0.4 1.099609,-2.29922 1.099609,-4.19922 0,-2.4 0.500005,-3.40039 1.500005,-3.40039 1.7,0 1.9,-0.9 0.5,-3 -0.7,-1.1 -0.29922,-1.79922 1.30078,-2.69922 1.2,-0.7 1.59883,-1.20078 0.79883,-1.30078 -1.00001,0 -1.09883,-0.30078 -0.29883,-1.30078 0.9,-1 0.79883,-1.89883 -0.20118,-3.29883 -1.6,-2.2 -1.30039,-5.3 0.59962,-6.5 1.1,-0.7 1.1,-1.10117 0,-1.70117 -1.00001,-0.7 -0.99883,-1.49961 -0.29883,-3.59961 0.7,-1.6 0.69922,-3.30039 0.19922,-4.40039 -2.30001,-4.200001 -3.30001,-8.19922 -2.00001,-8.19922 1.3,0 1.09961,-1.699219 -0.40039,-3.199219 -2.099996,-2.1 -3.898824,-5.701172 -3.298824,-6.701172 0.3,-0.5 -0.401172,-1.1 -1.701172,-1.5 -1.3,-0.3 -3.699219,-2.8 -5.699219,-6 -3.6,-5.6 -5,-6.8 -5,-4 0,1.1 -0.599219,1.400391 -2.199219,0.900391 -1.3,-0.4 -2.701172,-1.099609 -3.201172,-1.599609 -0.6,-0.5 -1.798828,-0.900391 -2.798828,-0.900391 -1,0 -1.800781,-0.7 -1.800781,-1.5 0,-0.8 0.5,-1.5 1,-1.5 0.6,0 1,-0.400391 1,-0.900391 0,-0.4 -1.199219,-0.798828 -2.699219,-0.798828 -1.6,0 -6.1,-1.001172 -10,-2.201172 -8.3,-2.4 -13.8,-2.699218 -15,-0.699218 -0.6,1 -2.000781,1.199218 -5.300781,0.699218 -3.5,-0.5 -4.5,-1 -4.5,-2.5 0,-1 -0.999219,-2.199218 -2.199219,-2.69921797 -1.8,-0.6 -2.101562,-0.501172 -1.601562,0.79882797 0.6,1.5 0.400781,1.5 -1.699219,0 C 33.496275,0.56283403 32.771641,0.02863003 32.067369,0.00111503 Z M 49.450181,39.981584 c 2.085449,0.0085 3.958985,0.419922 5.802735,1.201172 1.8,0.7 4.799218,2.898829 6.699218,4.798829 1.9,1.9 4.300391,3.80117 5.400391,4.20117 1.3,0.5 1.500781,0.99883 0.800781,1.29883 -0.7,0.3 -1.300781,1.10039 -1.300781,1.90039 0,0.8 -0.9,1.40039 -2,1.40039 -1.1,0 -2,0.4 -2,1 0,0.5 0.5,1 1,1 0.6,0 1,0.49961 1,1.09961 0,0.5 -0.499609,0.70078 -1.099609,0.30078 -4.5,-2.7 -13.700391,-1.80117 -18.900391,1.79883 -3.8,2.8 -1.499609,3.30039 3.900391,0.90039 2.7,-1.1 5.9,-2.09961 7,-2.09961 3.6,0 9.80039,3.00078 10.90039,5.30078 1,2.1 1.099219,2.09844 1.699219,-1.10156 0.8,-3.5 2.5,-4.39922 2.5,-1.19922 0,1.1 0.600781,2 1.300781,2 0.6,0 1.698438,1.2 2.398438,2.5 0.9,2 0.901172,3.10078 -0.298828,5.30078 -0.8,1.5 -1.400391,4.09922 -1.400391,5.69922 0,1.7 -0.699609,4.10078 -1.599609,5.30078 -1.8,2.6 -1.19961,5.39922 1.90039,8.19922 1.5,1.5 1.8,2.29961 1,3.09961 -0.6,0.6 -0.901562,1.79961 -0.601562,2.59961 0.9,2.3 -2.998828,5.100005 -6.798828,5.000005 -3.3,-0.2 -3.3,-0.0984 -4,4.60156 -0.8,4.9 -2.89961,7.59922 -6.09961,7.69922 -0.9,0 -2.401172,0.69961 -3.201172,1.59961 -1.2,1.2 -2.498828,1.30117 -5.798828,0.70117 -3.7,-0.7 -4.300781,-1.20078 -4.300781,-3.30078 0,-2 0.700391,-2.6 3.900391,-3.5 2.5,-0.7 3.999218,-1.80039 4.199218,-2.90039 0.2,-1.6 -0.299609,-1.69961 -5.099609,-1.09961 -2.9,0.3 -5.600391,0.19922 -5.900391,-0.30078 -0.7,-1.2 9.69961,-4.3 15.09961,-4.5 2.2,-0.1 3.901562,-0.599615 3.601562,-1.099615 -0.3,-0.5 -5.20039,-0.59883 -10.90039,-0.29883 -8.5,0.4 -10.400391,0.19961 -10.400391,-0.90039 0,-0.8 0.499609,-1.40039 1.099609,-1.40039 0.5,0 0.800391,-0.40039 0.400391,-0.90039 -0.7,-1.2 4.299609,-5.09961 6.599609,-5.09961 1.1,0 1.900391,-0.60039 1.900391,-1.40039 0,-1.7 -6.700391,-2.70039 -9.400391,-1.40039 -1,0.6 -2.699218,0.8 -3.699218,0.5 -1.4,-0.4 -1.9,3.9e-4 -2,1.40039 -0.1,1 -0.200782,2.49961 -0.300782,3.09961 0,0.7 -0.898828,1.40156 -1.798828,1.60156 -1.2,0.2 -1.800781,-0.30117 -1.800781,-1.70117 0,-1.1 -0.499609,-2.29961 -1.099609,-2.59961 -0.6,-0.4 -0.8,-1.3 -0.5,-2 0.3,-0.8 -0.300391,-1.7 -1.400391,-2 -1.8,-0.6 -1.899609,-0.9 -0.599609,-4 0.8,-1.8 1.299609,-3.49922 1.099609,-3.69922 -0.2,-0.2 0.999609,-0.4 2.599609,-0.5 2.6,-0.2 2.99961,0.19844 3.59961,2.89844 0.6,2.8 0.70039,3.00156 1.40039,1.10156 0.4,-1.2 0.800782,-4.1 0.800782,-6.5 -0.1,-3.5 -0.59961,-4.8 -3.09961,-7 -1.6,-1.5 -4.50039,-3.20078 -6.40039,-3.80078 l -3.400391,-1.19922 v -13.30078 l 8.800781,-4.19922 c 8.59375,-4.193749 14.208887,-6.12036 18.796875,-6.101561 z m 44.865235,21.861331 c 0.341015,0.06679 0.537109,0.37695 0.537109,0.93945 0,0.5 0.7,0.70039 1.5,0.40039 2.5,-1 1.799219,9.99922 -0.800781,13.19922 -2.4,3.1 -6.098828,4.60078 -9.298828,3.80078 -2.1,-0.5 -2.400391,-1.20039 -2.400391,-5.40039 0,-5.2 1.600391,-7.30078 3.400391,-4.80078 0.9,1.2 1.398828,1.30078 2.298828,0.30078 0.7,-0.7 1.8,-1.50078 2.5,-1.80078 1,-0.4 0.901562,-0.9 -0.398438,-2 -1.6,-1.3 -1.6,-1.5 0,-3 1.125,-1.1875 2.09375,-1.75 2.66211,-1.63867 z"
     id="path12"
     inkscape:connector-curvature="0" />
  <metadata
     id="metadata18">
    <rdf:RDF>
      <cc:Work>
        <dc:format>image/svg+xml</dc:format>
        <dc:type
           rdf:resource="http://purl.org/dc/dcmitype/StillImage" />
        <cc:license
           rdf:resource="http://creativecommons.org/publicdomain/zero/1.0/" />
        <dc:publisher>
          <cc:Agent
             rdf:about="http://openclipart.org/">
            <dc:title>Openclipart</dc:title>
          </cc:Agent>
        </dc:publisher>
        <dc:title>mt</dc:title>
        <dc:date>2013-05-16T13:48:30</dc:date>
        <dc:description>mt</dc:description>
        <dc:source>https://openclipart.org/detail/178236/mt-by-hazzahugs-178236</dc:source>
        <dc:creator>
          <cc:Agent>
            <dc:title>Hazzahugs</dc:title>
          </cc:Agent>
        </dc:creator>
        <dc:subject>
          <rdf:Bag>
            <rdf:li>mt</rdf:li>
          </rdf:Bag>
        </dc:subject>
      </cc:Work>
      <cc:License
         rdf:about="http://creativecommons.org/publicdomain/zero/1.0/">
        <cc:permits
           rdf:resource="http://creativecommons.org/ns#Reproduction" />
        <cc:permits
           rdf:resource="http://creativecommons.org/ns#Distribution" />
        <cc:permits
           rdf:resource="http://creativecommons.org/ns#DerivativeWorks" />
      </cc:License>
    </rdf:RDF>
  </metadata>
</svg>
